<svg width="25" height="12" viewBox="0 0 25 12" fill="none" xmlns="http://www.w3.org/2000/svg">
<g clip-path="url(#clip0_187_454)">
<path d="M22.413 8.5H21.9131V9V10.4C21.9131 10.9837 21.4073 11.5 20.7288 11.5H2.18421C1.50571 11.5 1 10.9837 1 10.4V1.6C1 1.01634 1.50571 0.5 2.18421 0.5H20.7288C21.4073 0.5 21.9131 1.01634 21.9131 1.6V2.4V2.9H22.413C23.314 2.90001 24 3.58765 24 4.38261V7.01739C24 7.81235 23.314 8.5 22.413 8.5Z" stroke="#E20000"/>
<path d="M2.5 2.66667C2.5 2.29848 2.86486 2 3.31494 2H5.74957C6.19965 2 6.56451 2.29848 6.56451 2.66667V9.33333C6.56451 9.70152 6.19965 10 5.74957 10H3.31494C2.86486 10 2.5 9.70152 2.5 9.33333V2.66667Z" fill="#E20000"/>
</g>
<defs>
<clipPath id="clip0_187_454">
<rect width="24" height="12" fill="white" transform="translate(0.5)"/>
</clipPath>
</defs>
</svg>
