<svg width="25" height="12" viewBox="0 0 25 12" fill="none" xmlns="http://www.w3.org/2000/svg">
<g clip-path="url(#clip0_40_22)">
<path d="M22.413 8.5H21.9131V9V10.4C21.9131 10.9837 21.4073 11.5 20.7288 11.5H2.18421C1.50571 11.5 1 10.9837 1 10.4V1.6C1 1.01634 1.50571 0.5 2.18421 0.5H20.7288C21.4073 0.5 21.9131 1.01634 21.9131 1.6V2.4V2.9H22.413C23.314 2.90001 24 3.58765 24 4.38261V7.01739C24 7.81235 23.314 8.5 22.413 8.5Z" stroke="black"/>
<path d="M2.5 2.66667C2.5 2.29848 2.86486 2 3.31494 2H5.74957C6.19965 2 6.56451 2.29848 6.56451 2.66667V9.33333C6.56451 9.70152 6.19965 10 5.74957 10H3.31494C2.86486 10 2.5 9.70152 2.5 9.33333V2.66667Z" fill="black"/>
<path d="M7.14502 2.66667C7.14502 2.29848 7.50988 2 7.95996 2H10.3946C10.8446 2 11.2095 2.29848 11.2095 2.66667V9.33333C11.2095 9.70152 10.8446 10 10.3946 10H7.95996C7.50988 10 7.14502 9.70152 7.14502 9.33333V2.66667Z" fill="black"/>
<path d="M11.7905 2.66667C11.7905 2.29848 12.1554 2 12.6055 2H15.0401C15.4902 2 15.855 2.29848 15.855 2.66667V9.33333C15.855 9.70152 15.4902 10 15.0401 10H12.6055C12.1554 10 11.7905 9.70152 11.7905 9.33333V2.66667Z" fill="black"/>
<path d="M16.4355 2.66667C16.4355 2.29848 16.8003 2 17.2504 2H19.6851C20.1351 2 20.5 2.29848 20.5 2.66667V9.33333C20.5 9.70152 20.1351 10 19.6851 10H17.2504C16.8003 10 16.4355 9.70152 16.4355 9.33333V2.66667Z" fill="black"/>
</g>
<defs>
<clipPath id="clip0_40_22">
<rect width="24" height="12" fill="white" transform="translate(0.5)"/>
</clipPath>
</defs>
</svg>
