<svg width="20" height="20" viewBox="0 0 20 20" fill="none" xmlns="http://www.w3.org/2000/svg">
<path d="M1.11059 6.72865C0.767648 7.03559 0.738464 7.56242 1.04541 7.90536C1.35234 8.2483 1.87917 8.27748 2.22211 7.97054L1.11059 6.72865ZM17.7773 7.97054C18.1202 8.27748 18.647 8.2483 18.9539 7.90536C19.2609 7.56242 19.2317 7.03559 18.8888 6.72865L17.7773 7.97054ZM9.99968 15.8334C9.53943 15.8334 9.16635 16.2065 9.16635 16.6667C9.16635 17.127 9.53943 17.5 9.99968 17.5V15.8334ZM10.008 17.5C10.4683 17.5 10.8413 17.127 10.8413 16.6667C10.8413 16.2065 10.4683 15.8334 10.008 15.8334V17.5ZM12.2418 14.2C12.5822 14.5097 13.1093 14.4848 13.4189 14.1444C13.7287 13.8039 13.7037 13.2769 13.3633 12.9671L12.2418 14.2ZM15.0446 11.117C15.385 11.4266 15.9121 11.4017 16.2218 11.0612C16.5314 10.7208 16.5065 10.1937 16.1661 9.88404L15.0446 11.117ZM6.63611 12.9671C6.29566 13.2769 6.27071 13.8039 6.58041 14.1444C6.8901 14.4848 7.41714 14.5097 7.7576 14.2L6.63611 12.9671ZM3.8333 9.88404C3.49284 10.1937 3.46789 10.7208 3.77758 11.0612C4.08727 11.4017 4.61431 11.4266 4.95477 11.117L3.8333 9.88404ZM2.22211 7.97054C4.28671 6.12267 7.01111 5.00004 9.99968 5.00004V3.33337C6.58531 3.33337 3.46895 4.61786 1.11059 6.72865L2.22211 7.97054ZM9.99968 5.00004C12.9883 5.00004 15.7127 6.12267 17.7773 7.97054L18.8888 6.72865C16.5304 4.61786 13.414 3.33337 9.99968 3.33337V5.00004ZM9.99968 17.5H10.008V15.8334H9.99968V17.5ZM9.99968 13.3334C10.8636 13.3334 11.6491 13.661 12.2418 14.2L13.3633 12.9671C12.4758 12.1599 11.2943 11.6667 9.99968 11.6667V13.3334ZM9.99968 9.16671C11.9429 9.16671 13.7118 9.90462 15.0446 11.117L16.1661 9.88404C14.5385 8.40354 12.3736 7.50004 9.99968 7.50004V9.16671ZM7.7576 14.2C8.35026 13.661 9.13577 13.3334 9.99968 13.3334V11.6667C8.70501 11.6667 7.52361 12.1599 6.63611 12.9671L7.7576 14.2ZM4.95477 11.117C6.28755 9.90462 8.05647 9.16671 9.99968 9.16671V7.50004C7.62574 7.50004 5.46088 8.40354 3.8333 9.88404L4.95477 11.117Z" fill="white"/>
</svg>
